<?xml version="1.0"?>
<svg xmlns="http://www.w3.org/2000/svg" xmlns:xlink="http://www.w3.org/1999/xlink" xmlns:svgjs="http://svgjs.com/svgjs" version="1.1" width="512" height="512" x="0" y="0" viewBox="0 0 511 511.99997" style="enable-background:new 0 0 512 512" xml:space="preserve" class=""><g><path xmlns="http://www.w3.org/2000/svg" d="m.5 85.976562v275.464844c0 24.5 19.859375 44.359375 44.359375 44.359375h422.582031c24.5 0 44.359375-19.859375 44.359375-44.359375v-275.464844c0-24.242187-19.648437-43.890624-43.890625-43.890624h-423.519531c-24.242187 0-43.890625 19.648437-43.890625 43.890624zm0 0" fill="#c4e2f2" data-original="#c4e2f2" style="" class=""/><path xmlns="http://www.w3.org/2000/svg" d="m359.28125 464.992188-103.128906 23.5-103.136719-23.5 14.128906-59.1875 84.628907-31.117188 93.378906 31.117188 4.570312 19.160156zm0 0" fill="#2d303b" data-original="#2d303b" style=""/><path xmlns="http://www.w3.org/2000/svg" d="m511.804688 356.21875v5.21875c0 24.5-19.867188 44.367188-44.367188 44.367188h-422.578125c-24.5 0-44.355469-19.867188-44.355469-44.367188v-5.21875zm0 0" fill="#3c3f4d" data-original="#3c3f4d" style="" class=""/><path xmlns="http://www.w3.org/2000/svg" d="m359.28125 464.992188h-157.742188l9.558594-40.027344h138.625zm0 0" fill="#3c3f4d" data-original="#3c3f4d" style="" class=""/><path xmlns="http://www.w3.org/2000/svg" d="m420.0625 497.945312v14.054688h-327.816406v-14.054688c0-18.199218 14.753906-32.953124 32.953125-32.953124h261.910156c18.199219 0 32.953125 14.753906 32.953125 32.953124zm0 0" fill="#2d303b" data-original="#2d303b" style=""/><path xmlns="http://www.w3.org/2000/svg" d="m420.0625 497.945312v14.054688h-271.480469v-14.054688c0-18.199218 14.753907-32.953124 32.964844-32.953124h205.5625c18.199219 0 32.953125 14.753906 32.953125 32.953124zm0 0" fill="#3c3f4d" data-original="#3c3f4d" style="" class=""/><path xmlns="http://www.w3.org/2000/svg" d="m93.324219 100.136719h208.847656l26.609375 256.082031h-262.0625zm0 0" fill="#ff491f" data-original="#ff491f" style="" class=""/><path xmlns="http://www.w3.org/2000/svg" d="m196.011719 182.933594h145.175781l18.492188 173.285156h-182.160157zm0 0" fill="#ed3618" data-original="#ed3618" style="" class=""/><path xmlns="http://www.w3.org/2000/svg" d="m215.839844 182.933594h145.171875l18.496093 173.285156h-182.164062zm0 0" fill="#01579b" data-original="#ffe14d" style="" class=""/><path xmlns="http://www.w3.org/2000/svg" d="m254.09375 133.007812c-4.324219 0-7.824219-3.503906-7.824219-7.828124v-51.644532c0-26.753906-21.765625-48.519531-48.519531-48.519531s-48.519531 21.765625-48.519531 48.519531v51.644532c0 4.320312-3.503907 7.824218-7.824219 7.824218-4.324219 0-7.828125-3.503906-7.828125-7.824218v-51.644532c0-35.386718 28.789063-64.171875 64.171875-64.171875s64.171875 28.789063 64.171875 64.171875v51.644532c0 4.324218-3.503906 7.828124-7.828125 7.828124zm0 0" fill="#3c3f4d" data-original="#3c3f4d" style="" class=""/><path xmlns="http://www.w3.org/2000/svg" d="m288.425781 289.660156c-22.871093 0-41.476562-18.605468-41.476562-41.476562v-33.648438c0-4.324218 3.503906-7.828125 7.828125-7.828125 4.320312 0 7.824218 3.503907 7.824218 7.828125v33.648438c0 14.242187 11.585938 25.824218 25.824219 25.824218s25.824219-11.582031 25.824219-25.824218v-33.648438c0-4.324218 3.503906-7.828125 7.828125-7.828125 4.320313 0 7.824219 3.503907 7.824219 7.828125v33.648438c0 22.871094-18.605469 41.476562-41.476563 41.476562zm0 0" fill="#ffffff" data-original="#ffffff" style=""/><path xmlns="http://www.w3.org/2000/svg" d="m475.285156 76.503906c0 42.253906-34.253906 76.503906-76.503906 76.503906-42.253906 0-76.503906-34.25-76.503906-76.503906 0-42.25 34.25-76.503906 76.503906-76.503906 42.25 0 76.503906 34.253906 76.503906 76.503906zm0 0" fill="#01579b" data-original="#32cc77" style="" class=""/><path xmlns="http://www.w3.org/2000/svg" d="m390.761719 122.890625c-2.835938 0-5.457031-1.539063-6.839844-4.027344l-20.871094-37.566406c-2.097656-3.777344-.738281-8.542969 3.042969-10.640625s8.542969-.738281 10.640625 3.042969l13.566406 24.414062 29.945313-61.601562c1.886718-3.886719 6.566406-5.507813 10.460937-3.617188 3.886719 1.890625 5.503907 6.574219 3.613281 10.460938l-36.519531 75.128906c-1.277343 2.625-3.90625 4.320313-6.824219 4.402344-.070312 0-.140624.003906-.214843.003906zm0 0" fill="#ffffff" data-original="#ffffff" style=""/><g xmlns="http://www.w3.org/2000/svg" fill="#3c3f4d"><path d="m483.171875 214.722656h-75.128906c-4.320313 0-7.824219-3.503906-7.824219-7.824218 0-4.324219 3.503906-7.828126 7.824219-7.828126h75.128906c4.324219 0 7.824219 3.503907 7.824219 7.828126 0 4.320312-3.503906 7.824218-7.824219 7.824218zm0 0" fill="#3c3f4d" data-original="#3c3f4d" style="" class=""/><path d="m483.171875 251.246094h-59.472656c-4.324219 0-7.828125-3.503906-7.828125-7.824219 0-4.324219 3.503906-7.828125 7.828125-7.828125h59.472656c4.324219 0 7.824219 3.503906 7.824219 7.828125 0 4.320313-3.503906 7.824219-7.824219 7.824219zm0 0" fill="#3c3f4d" data-original="#3c3f4d" style="" class=""/></g></g></svg>
